<svg id="Layer_1" data-name="Layer 1" xmlns="http://www.w3.org/2000/svg" viewBox="0 0 57.45 108" data-inject-url="https://greencointec.com/wp-content/plugins/solar-wizard/images/battery.svg" decoding="async"><defs><style>.cls-1{fill:#f7931e;}</style></defs><path class="cls-1" d="M87.8,126H56.2a12.94,12.94,0,0,1-12.92-12.93V42.27A12.93,12.93,0,0,1,56.2,29.35H87.8a12.93,12.93,0,0,1,12.92,12.92v70.8A12.94,12.94,0,0,1,87.8,126ZM83.34,26.55H61.77V24a6,6,0,0,1,6-6h9.59a6,6,0,0,1,6,6Zm12.88,36.9v-20A9.39,9.39,0,0,0,86.84,34H57.14a9.39,9.39,0,0,0-9.37,9.37v20H96.22ZM63,114.12,92.09,85,71.61,90.41,82.39,68.84,54.36,98l18.32-3.23Z" transform="translate(-43.28 -18)"></path></svg>