<svg id="Layer_1" xmlns="http://www.w3.org/2000/svg" viewBox="0 0 144 144" data-inject-url="https://greencointec.com/wp-content/plugins/solar-wizard/images/emission_factor.svg" decoding="async"><path d="M111.37,54.71c-1.04-8.75-8.33-15.42-17.29-15.42-2.71,0-5.21,.63-7.29,1.67-3.33-5.62-9.17-9.17-16.25-9.17-6.46,0-12.08,3.33-15.42,8.12,6.87,.42,13.33,4.17,17.29,9.79,2.5-.83,5-1.25,7.5-1.25,10.62,0,19.58,7.71,21.46,18.13,7.29,3.54,12.08,11.04,12.08,19.37,5.21-2.92,8.54-8.54,8.54-15,0-7.29-4.38-13.54-10.63-16.25Z"></path><path d="M74.08,69.29c-2.08,0-3.96,.83-5.42,2.29s-2.29,3.33-2.29,5.63c0,2.08,.83,3.96,2.29,5.63,1.46,1.46,3.33,2.29,5.42,2.29s3.96-.83,5.42-2.29,2.29-3.33,2.29-5.63c0-2.08-.83-3.96-2.29-5.63s-3.12-2.29-5.42-2.29Z"></path><path d="M99.5,67.83c-1.04-9.79-9.37-17.5-19.37-17.5-2.92,0-5.83,.63-8.33,1.87-3.75-6.25-10.42-10.42-18.13-10.42-11.67,0-21.25,9.58-21.25,21.04v1.87c-6.25,4.17-10.42,11.25-10.42,19.37,0,12.5,10.21,22.71,22.71,22.71,2.71,0,5.42-.42,7.92-1.46,3.54,4.17,8.96,6.87,15,6.87,6.67,0,12.71-3.33,16.25-8.54,2.5,1.04,5.21,1.67,7.92,1.67,10.83,0,19.58-8.75,19.58-19.58,0-7.92-5-15-11.88-17.92Zm-53.12,14.58c1.46,1.46,3.12,2.29,5.21,2.29,1.25,0,2.29-.21,3.33-.62,.83-.42,1.87-1.04,2.92-2.08l2.29,2.5c-2.29,2.5-5,3.75-8.33,3.75s-6.04-1.04-8.12-3.12-3.33-4.79-3.33-7.92,1.04-5.83,3.33-8.12c2.29-2.08,5-3.12,8.33-3.12s6.25,1.25,8.33,3.75l-2.29,2.5c-1.04-1.04-2.08-1.67-2.92-2.08s-2.08-.62-3.33-.62c-2.08,0-3.96,.62-5.42,2.08-1.46,1.46-2.29,3.12-2.29,5.42,.21,2.29,.83,3.96,2.29,5.42Zm35.83,2.71c-2.08,2.08-4.79,3.12-8.12,3.12-3.12,0-5.83-1.04-8.12-3.12s-3.33-4.79-3.33-7.92,1.04-5.83,3.33-7.92c2.08-2.08,4.79-3.12,8.12-3.12,3.12,0,5.83,1.04,8.12,3.12s3.33,4.79,3.33,7.92-1.04,5.63-3.33,7.92Zm11.46,13.12h-8.96v-1.88l3.96-3.96c.83-.83,1.46-1.67,1.88-2.08s.62-1.04,.62-1.46-.21-1.04-.62-1.25c-.42-.42-.83-.62-1.46-.62-1.04,0-1.88,.62-2.71,1.67l-1.67-1.04c.62-.83,1.25-1.46,1.88-1.87,.62-.42,1.67-.62,2.71-.62s2.08,.42,2.92,1.04c.83,.63,1.25,1.67,1.25,2.71,0,.62-.21,1.25-.42,1.88-.42,.62-1.04,1.46-1.88,2.29l-3.12,3.12h5.83v2.08h-.21Z"></path></svg>