<svg xmlns="http://www.w3.org/2000/svg" version="1.1" xmlns:xlink="http://www.w3.org/1999/xlink" xmlns:svgjs="http://svgjs.com/svgjs" width="361.18" height="338.93"><svg xmlns="http://www.w3.org/2000/svg" viewBox="0 0 361.18 338.93"><defs><style>.cls-1{fill:#5d8c3b;}</style></defs><title>GC Solar_icon</title><g id="SvgjsG1002" data-name="Layer 2"><g id="SvgjsG1001" data-name="Layer 1"><path id="SvgjsPath1000" data-name="GCT - icon-2" class="cls-1" d="M256.78,334.54a14,14,0,0,1-4.39-10.24V183.13H223.08a14,14,0,0,1-10.24-4.39c-2.93-2.93-4.39-9-4.39-12.85,0-3.74,1.46-9.68,4.39-12.61a14,14,0,0,1,10.24-4.39h63.55V324.3a14.06,14.06,0,0,1-4.39,10.24c-2.93,2.92-8.95,4.39-12.85,4.39C265.65,338.93,259.71,337.47,256.78,334.54ZM48,276.3C17.59,245.83,0,206.66,0,162.12,0,117.75,15.78,79,47.64,47.17S117.75,0,162.12,0c32.18,0,64.17,9.3,97,32.42C274,43.87,279.76,50.61,280.7,56.21c.37,2.1,2.49,9.1-4.55,15.76-6,5.61-14.34,4.26-17,2.73S241.79,62,239.84,60.19c-22.45-16.14-46-25.54-77.72-25.87a128.11,128.11,0,0,0-88.9,35.27C51.76,90.47,34.17,123,34.42,161c-.17,29.64,10.1,61.66,35.68,88.69,25.24,25.93,56.84,38.85,89.54,39.17,31.72.6,57.12-9.34,81.1-27.14.33-.26-.2,40.86,0,40.94-27.47,14.21-50.28,20.57-78.62,20.57C119.23,323,78.44,306.76,48,276.3Zm276-94.4c-17.88-7.45-24.75-30.4-25.83-33-.07-.09,26.43-7.62,42.66,2.31,21.58,14.24,20.53,29,20.17,29.08-1.64,1.9-9.22,5.15-19.23,5.15A45.94,45.94,0,0,1,324.05,181.9Z"></path></g></g></svg><style>@media (prefers-color-scheme: light) { :root { filter: none; } }
</style></svg>