<svg version="1.1" id="Layer_1" xmlns="http://www.w3.org/2000/svg" xmlns:xlink="http://www.w3.org/1999/xlink" x="0px" y="0px" viewBox="0 0 144 144" style="enable-background:new 0 0 144 144;" xml:space="preserve" data-inject-url="https://greencointec.com/wp-content/plugins/solar-wizard/images/car_miles_driven.svg" decoding="async">
<path d="M54.7,95.6V83.8h-6.3v11.8H54.7z M64.9,95.6V83.8h-6.3v11.8H64.9z M75.1,95.6V83.8h-6.3v11.8H75.1z M85.3,95.6V83.8H79v11.8
	H85.3z M95.5,95.6V83.8h-6.3v11.8H95.5z M99.5,79.9v19.6h-55V79.9H99.5L99.5,79.9z"></path>
<path d="M75.9,66.1c0-2.2-1.8-3.9-3.9-3.9s-3.9,1.8-3.9,3.9c0,2.2,1.8,3.9,3.9,3.9S75.9,68.3,75.9,66.1z M79.6,64.2
	c1.1,4.2-1.4,8.5-5.7,9.6c-4.2,1.1-8.5-1.4-9.6-5.7H40.6v-3.9h23.8c0.8-2.8,2.9-4.9,5.7-5.7C74.2,57.4,78.5,59.9,79.6,64.2z"></path>
<path d="M101.4,64.1c0.1,1.3,0.1,2.6,0,3.9h-7.9c1.1-11.9-7.7-22.4-19.6-23.5c-11.1-1-21.2,6.6-23.2,17.6h-4
	c0.3-2.5,1.1-4.9,2.2-7.1l-3.4-2c0.6-1.2,1.2-2.3,2-3.4l3.4,2c1.8-2.6,4-4.9,6.6-6.6l-2-3.4c1.1-0.7,2.2-1.4,3.4-2l2,3.4
	c2.9-1.4,5.9-2.2,9.1-2.4v-3.9c1.3-0.1,2.6-0.1,3.9,0v3.9c3.1,0.2,6.2,1.1,9.1,2.4l2-3.4c1.2,0.6,2.3,1.2,3.4,2l-2,3.4
	c2.6,1.8,4.9,4,6.6,6.6l3.4-2c0.7,1.1,1.4,2.2,2,3.4l-3.4,2c1.4,2.9,2.2,5.9,2.4,9.1L101.4,64.1L101.4,64.1z"></path>
<path d="M115.2,72c0-23.9-19.3-43.2-43.2-43.2S28.8,48.1,28.8,72s19.3,43.2,43.2,43.2S115.2,95.9,115.2,72z M72,24.9
	c26.1,0,47.1,21.1,47.1,47.1S98,119.1,72,119.1S24.9,98,24.9,72S46,24.9,72,24.9z"></path>
<path d="M123.1,72c0-28.2-22.9-51.1-51.1-51.1S20.9,43.8,20.9,72s22.9,51.1,51.1,51.1S123.1,100.2,123.1,72z M72,17
	c30.4,0,55,24.6,55,55s-24.6,55-55,55s-55-24.6-55-55S41.6,17,72,17z"></path>
</svg>