<svg xmlns="http://www.w3.org/2000/svg" id="Layer_1" viewBox="0 0 144 144" data-inject-url="https://greencointec.com/wp-content/plugins/solar-wizard/images/tree_seedlings_grown.svg" decoding="async"><path d="M23.74,118.7c-.96,0-1.65,.78-1.65,1.65,0,.96,.78,1.65,1.65,1.65h16.7c.96,0,1.65-.78,1.65-1.65,0-.96-.78-1.65-1.65-1.65H23.74Zm23.3,0c-.96,0-1.65,.78-1.65,1.65,0,.96,.78,1.65,1.65,1.65H120.35c.96,0,1.65-.78,1.65-1.65,0-.96-.78-1.65-1.65-1.65H47.04ZM78.61,22c-10.87,.09-20.61,6.78-24.61,16.87-.7-.09-1.3-.17-2-.17-8.61,0-16.17,5.48-18.87,13.57-6.35,1.04-11.13,6.52-11.13,13.13,0,4.7,2.43,9.04,6.52,11.48,.78,.43,1.83,.17,2.26-.61,.43-.78,.17-1.83-.61-2.26-3.04-1.83-4.87-5.04-4.87-8.61,0-5.22,4-9.57,9.13-10,.7-.09,1.3-.52,1.48-1.22,2.26-8.17,10.43-13.3,18.78-11.91,.78,.17,1.57-.35,1.83-1.13,3.22-9.48,12.09-15.83,22.09-15.83h0c9.91,0,18.7,6.26,22,15.57,.26,.7,.87,1.13,1.57,1.13,9.13,.09,16.43,7.57,16.43,16.7s-7.48,16.7-16.7,16.7c-4.52,0-8.78-1.83-11.91-5.04-.52-.52-1.22-.61-1.91-.35-6.87,3.04-14.7,2.7-21.22-1.13-.7-.43-1.57-.26-2.09,.35-5.22,6.35-14.35,7.91-21.39,3.74-.61-.35-1.39-.26-1.91,.17-1.74,1.39-4,2.17-6.26,2.17-.96,0-1.65,.78-1.65,1.65,0,.96,.78,1.65,1.65,1.65,2.7,0,5.22-.96,7.39-2.43,2.87,1.48,6,2.43,9.3,2.43,5.48,0,10.7-2.35,14.43-6.35,3.74,1.91,7.91,3.04,12.17,3.04,3.39,0,6.7-.7,9.83-2,3.65,3.39,8.43,5.3,13.48,5.3,11.04,0,20-8.96,20-20s-8.26-19.13-18.61-19.91c-4-10.09-13.74-16.78-24.7-16.78h.09v.09Z"></path><path d="M66.7,70.43c-.87,.17-1.48,1.04-1.3,2,3.48,16-3.39,32.43-3.39,48,0,.96,.78,1.65,1.65,1.65s1.65-.78,1.65-1.65c0-14.52,7.04-31.39,3.3-48.7-.09-.96-.96-1.48-1.91-1.3Zm10.78,1.65c-.87-.26-1.83,.35-2,1.22-2.61,10.26-1.74,18.43-.26,25.74,1.48,7.3,3.48,13.91,3.57,21.3,0,.96,.78,1.65,1.65,1.65h0c.96,0,1.65-.78,1.65-1.65h0c-.09-8-2.17-14.78-3.65-21.91-1.39-7.13-2.17-14.61,.26-24.26,.26-.96-.35-1.83-1.22-2.09Zm26.26,24.96c-.96,0-1.65,.78-1.65,1.65v21.65c0,.96,.78,1.65,1.65,1.65,.96,0,1.65-.78,1.65-1.65v-21.65c0-.87-.7-1.65-1.65-1.65Z"></path><path d="M117.04,85.39c-8.26,0-14.96,6.7-14.96,14.96,0,.96,.78,1.65,1.65,1.65,8.26,0,14.96-6.7,14.96-14.96,.09-.96-.7-1.65-1.65-1.65Zm-1.83,3.48c-.78,4.96-4.7,8.87-9.65,9.65,.78-4.96,4.7-8.87,9.65-9.65Z"></path><path d="M90.43,97.04c-.96,0-1.65,.78-1.65,1.65,0,8.26,6.7,14.96,14.96,14.96,.96,0,1.65-.78,1.65-1.65,0-8.26-6.7-14.96-14.96-14.96Zm1.83,3.48c4.96,.78,8.87,4.7,9.65,9.65-4.96-.78-8.87-4.7-9.65-9.65Zm-51.83-3.48c-.96,0-1.65,.78-1.65,1.65v21.65c0,.96,.78,1.65,1.65,1.65,.96,0,1.65-.78,1.65-1.65v-21.65c0-.87-.78-1.65-1.65-1.65Z"></path><path d="M27.04,85.39c-.96,0-1.65,.78-1.65,1.65,0,8.26,6.7,14.96,14.96,14.96,.96,0,1.65-.78,1.65-1.65,.09-8.26-6.7-14.96-14.96-14.96Zm1.91,3.48c4.96,.78,8.87,4.7,9.65,9.65-5.04-.78-8.87-4.7-9.65-9.65h0Z"></path><path d="M53.74,97.04c-8.26,0-14.96,6.7-14.96,14.96,0,.96,.78,1.65,1.65,1.65,8.26,0,14.96-6.7,14.96-14.96,0-.87-.7-1.65-1.65-1.65Zm-1.83,3.48c-.78,4.96-4.7,8.87-9.65,9.65,.78-4.96,4.7-8.87,9.65-9.65Z"></path></svg>